<?xml version="1.0" encoding="utf-8"?>
<svg xmlns="http://www.w3.org/2000/svg" viewBox="0 0 500 410">
	<title>A diagram of a horizontal gas pipe with three taps. Tap A is located towards the right where the pipe meets the wall. Its handle is vertical, and it is labelled “turned on.” Tap B is located on the left end of the pipe where it turns upwards. Its handle is horizontal, and it is labelled “turned off.” Between the two, a flexible tube connects to the pipe and leads away to a lamp. Tap C is located on this branch. Its handle is horizontal, and it is labelled “turned on.”</title>
	<path d="m102.8 375.89c-0.19969-0.51566 0.21991-2.098 0.92767-3.5135 0.70776-1.4155 1.4914-3.3998 1.7315-4.4109 0.53082-2.2067 2.1157-2.4216 2.6541-0.35894 0.35388 1.3498 0.70523 1.1274 3.9913-2.5075a295.11 295.11 0 0 0 6.2106-7.113c2.8816-3.4503 4.1707-4.2718 5.1616-3.286 0.92768 0.93021-0.51818 2.9195-7.3481 10.096-5.0049 5.2576-5.6798 6.2334-4.7041 6.7793 1.9615 1.097 1.3675 2.5783-1.0338 2.5783-1.1956 3e-3 -3.1596 0.60665-4.3628 1.3397-2.6061 1.5874-2.7628 1.6076-3.2279 0.39686zm27.598-4.8583c-0.9479-0.9479-0.30333-2.2572 3.736-7.5806 5.2678-6.9462 12.623-17.279 15.71-22.07 1.3018-2.0222 3.7158-5.7303 5.3664-8.2404 2.7299-4.1505 12.196-20.988 12.196-21.688 0-0.16431 1.0945-2.5985 2.4342-5.4144 5.4043-11.365 6.8754-14.823 9.5598-22.507 1.5419-4.4159 3.2127-8.9658 3.7132-10.116 1.2133-2.7881 4.5095-14.451 6.3067-22.32 0.79876-3.4958 2.3179-10.118 3.3796-14.716 1.0616-4.5979 2.2471-9.8632 2.6364-11.703 0.76842-3.6146 2.0651-15.813 2.0651-19.418v-2.2244l-2.8437 1.5773c-6.476 3.5894-22.226 3.8927-28.824 0.55105-1.7846-0.9024-3.4301-1.456-3.6576-1.2285-0.2275 0.22749-0.49544 7.6969-0.59655 16.597-0.20221 17.51-1.1754 26.346-3.9331 35.676-0.8847 2.9954-1.6102 5.9578-1.6102 6.5847 0 0.62435-0.42972 1.9362-0.96054 2.9119-0.52576 0.97823-1.7669 4.0342-2.7577 6.792-3.3796 9.4056-11.979 27.438-17.381 36.45-1.5419 2.5732-3.4882 6.0362-4.3224 7.6893-0.83667 1.6557-3.286 5.6545-5.4396 8.8849-2.1536 3.2304-3.918 6.0033-3.918 6.1651 0 0.15925-2.9069 4.1379-6.4608 8.8394-11.486 15.197-18.953 22.507-18.953 18.559 0-0.56368 2.5884-4.1 5.7506-7.8612 8.5488-10.161 14.264-18.063 22.942-31.723 6.1424-9.6711 17.937-31.781 20.904-39.185 3.8851-9.6963 7.9952-22.684 9.5042-30.029 2.4418-11.885 3.1217-19.019 3.0585-32.084-0.0556-12.065 0.3286-14.58 2.7148-17.937 0.78865-1.1071 1.3321-2.5378 1.2082-3.1774-0.19969-1.0364-1.2639-1.1804-9.4739-1.2891-5.0858-0.0632-9.6786-0.28311-10.204-0.48533-0.75074-0.28563-0.92009-1.6986-0.79118-6.567 0.0885-3.4124 0.47016-6.4229 0.84931-6.6934 0.37916-0.27047 4.9922-0.49543 10.25-0.50049l9.5624-0.0101-0.19716-4.1808-0.20222-4.1808-18.389-0.10363c-10.116-0.0581-35.247-0.17694-55.845-0.26794-20.601-0.0885-37.987-0.42971-38.641-0.76337-1.1223-0.56874-1.1729-2.5024-0.88976-34.306 0.22244-25.227 0.10111-33.866-0.48279-34.347-0.43224-0.35388-4.0974-0.54851-8.1999-0.43476-4.0797 0.11627-7.8435-0.0506-8.3592-0.37158-1.274-0.78612-1.1931-11.494 0.09605-13.048 0.74315-0.89481 2.1435-1.0414 8.2859-0.87206 4.0696 0.11122 7.7475-0.01769 8.1797-0.2831 0.57379-0.35894 0.70523-4.2744 0.48785-14.691-0.1643-7.8132-0.30333-23.235-0.31596-34.268-0.01517-18.632 0.08594-20.399 1.4155-24.746 1.2133-3.9635 2.0171-5.2577 5.2602-8.4325 4.6889-4.5929 8.9228-6.2586 15.882-6.2409 3.9129 0.012639 5.47 0.35894 8.5285 1.9059 4.6485 2.3508 8.569 6.2106 10.857 10.682l1.7517 3.4225-0.0076 24.077c-0.0051 13.243-0.06825 29.645-0.14155 36.45l-0.13144 12.373 7.5756-0.22244c4.3603-0.12639 8.3667 0.08089 9.441 0.4929l1.8629 0.71787-0.1921 6.5291-0.19211 6.5266-8.6954 0.12638c-4.7799 0.0657-8.9936 0.14155-9.3602 0.1643-0.63698 0.0405-0.6016 28.091 0.03539 28.728 0.3286 0.32861 95.361 0.15925 151.78-0.26794 59.619-0.45246 71.623-0.45498 91.458-0.0177l17.889 0.39432-0.0101-5.8694c-5e-3 -3.2279-0.27805-6.294-0.60666-6.8097-0.60665-0.96053 0.20981-3.6652 1.5798-5.2248 1.0111-1.1526 12.391-1.3068 13.089-0.17694 0.28563 0.46004 0.42718 4.7521 0.31344 9.5346l-0.20728 8.6954 9.8076-0.42466c5.3967-0.23507 23.654-0.47015 40.575-0.52576 16.921-0.0531 31.331-0.30333 32.024-0.54852 0.86195-0.31091 2.0576-2.6946 3.8017-7.5832 3.4807-9.7722 6.2384-14.676 10.379-18.457 2.7678-2.5302 4.1606-3.3012 6.5695-3.6298 3.3189-0.45499 5.6292 0.14408 7.0245 1.825 0.49038 0.58896 1.2436 1.0718 1.6759 1.0718 0.93778 0 5.7379 4.79 5.7379 5.7278 0 0.36147 0.88976 1.734 1.9792 3.056 2.1789 2.644 4.5398 9.8 5.4852 16.632 0.33365 2.3887 0.77601 11.686 0.98581 20.657 0.34882 14.775 0.25024 17.075-1.0541 24.41-0.94284 5.3082-2.1182 9.484-3.4099 12.113-1.0869 2.2067-2.3963 5.106-2.9145 6.4457-1.2184 3.1495-5.4093 7.7702-8.0381 8.8698-6.7162 2.8032-10.92 2.0651-15.515-2.7198-4.9392-5.1388-8.8167-13.566-11.223-24.392l-0.3918-1.7644-35.618-0.0253c-19.59-0.0101-38.404-0.20727-41.806-0.43224-4.7926-0.31849-6.2056-0.21738-6.2687 0.44994-0.043 0.47521-0.0354 3.6551 0.0152 7.0675 0.12891 8.5917-0.0607 8.842-6.6884 8.842-8.0432 0-7.9598 0.0961-7.9598-9.1377v-7.755l-3.9736 0.44993c-3.3998 0.38421-35.353 0.85942-75.612 1.1248-6.0691 0.0404-20.515-0.13144-32.102-0.37915-33.634-0.72546-40.762-0.79118-41.298-0.39433-0.27553 0.20728-0.56874 2.2396-0.64963 4.5196l-0.14661 4.1455 10.331-0.26035c5.6823-0.14155 10.46-0.0506 10.616 0.20222 0.15672 0.25277 0.45752 3.0484 0.66985 6.2081 0.55863 8.4224 0.86195 8.21-11.526 8.028-10.083-0.14661-10.131-0.13902-10.131 1.3473 0 0.8215 0.52829 2.0752 1.1703 2.7855 2.6693 2.9473 1.4838 20.33-2.5176 36.935-1.5242 6.3193-2.6364 11.741-3.1243 15.217-0.19211 1.3852-0.6193 2.6794-0.9479 2.8841-0.3286 0.20221-0.59907 0.88975-0.59907 1.5267 0 1.2259-8.9481 28.217-11.228 33.876-5.561 13.786-15.859 34.251-22.55 44.809-4.5499 7.1812-11.749 17.601-15.707 22.739a1179.1 1179.1 0 0 0-7.5048 9.8429c-2.74 3.6576-3.7789 4.4033-4.7622 3.42zm56.386-167.08c2.6111-0.55104 5.6596-1.4711 6.7692-2.0449 1.7694-0.91504 1.9918-1.3473 1.8124-3.5085-0.27299-3.281-1.8857-3.5287-5.0302-0.76842-3.0181 2.649-7.2293 4.6156-9.8884 4.6156-2.7097 0-7.5629-2.275-10.118-4.742-3.7562-3.6298-7.2369-1.8579-6.0033 3.056 0.85689 3.4099 13.382 5.3006 22.459 3.3922zm-1.3043-5.8871c5.0681-2.6794 4.3275-3.147-4.9771-3.147-4.6282 0-8.4173 0.25277-8.4173 0.56621 0 0.95295 2.4266 2.8235 4.4437 3.4276 3.3037 0.99087 5.9502 0.74062 8.9481-0.84679zm286.4 0.16178c5.3057-1.4737 9.12-8.2909 13.458-24.039 1.7644-6.4052 1.868-7.4264 2.0753-20.399 0.22749-14.221-0.59149-25.532-1.9666-27.074-0.49796-0.55862-1.2462-2.371-1.6683-4.0267-0.71535-2.8235-1.2487-4.2036-3.463-8.9481-0.4929-1.0616-2.0247-3.2077-3.4023-4.7723-4.4918-5.1035-8.8925-4.3679-13.728 2.2952-1.5647 2.1536-2.8437 4.1202-2.8437 4.3704s-0.71281 2.0146-1.5849 3.9205c-0.86953 1.9084-1.7947 4.4437-2.0576 5.6368-0.26035 1.188-0.75073 2.3356-1.0894 2.5454-0.34124 0.2098-0.61676 1.1122-0.61676 1.9994 0 1.6127 0.0278 1.6177 6.9563 1.5672 8.4603-0.0657 9.944 0.54093 13.187 5.3815 7.0296 10.503 5.4902 26.089-3.4099 34.493l-2.1233 2.0045-7.6413-0.18705c-6.38-0.15671-7.6388-0.0253-7.6388 0.80129 0 1.4534 3.2355 11.719 4.5499 14.433 2.1031 4.3401 4.9341 8.119 7.0523 9.4132 2.4468 1.4914 2.6288 1.509 5.9553 0.58138zm-313.52-9.661c4.6889-5.3411 3.9078-5.8138-0.90998-0.55104-4.0191 4.3831-4.3881 4.8962-3.5338 4.8962 0.34377 0 2.3432-1.9564 4.4437-4.3477zm3.3518 0.35136c2.1738-2.1991 3.736-4.2112 3.4731-4.4766-0.49038-0.49038-8.4729 6.9967-8.4729 7.9497 0 1.183 1.2512 0.31597 4.9998-3.4731zm6.749-4.5373c-0.58896-0.58137-7.7348 6.8678-7.7348 8.0609 0 0.44235 1.8528-1.0793 4.1202-3.3796 2.2648-2.3002 3.8927-4.4084 3.6146-4.6813zm0.29069 4.1859c2.5404-2.5656 3.8775-4.3477 3.2608-4.3477-0.95042 0-8.6119 7.3936-8.6119 8.3086 0 1.0541 1.4231 0 5.3512-3.9609zm0.84931 2.8412c3.8093-3.6096 6.6277-7.1888 5.6621-7.1888-0.54852 0-2.7148 1.9564-4.8153 4.3477-3.6399 4.1455-4.1985 6.0185-0.84679 2.8412zm6.1929-2.644c2.5075-2.7097 3.5312-4.2542 2.9473-4.4488-0.81898-0.27299-7.9295 6.9512-7.9674 8.0963-0.0405 1.279 1.4812 0.17188 5.02-3.6475zm3.3012 0.10111c2.1233-2.2244 3.6652-4.2365 3.4276-4.4741-0.45499-0.45499-8.4198 7.108-8.4198 8.0002 0 1.2386 1.3751 0.26541 4.9922-3.5236zm3.3492 0.0506c4.3654-4.4109 4.6257-6.5139 0.2831-2.3129-3.142 3.0408-5.6318 6.3092-4.8027 6.3092 0.31091 0 2.3457-1.7972 4.5196-3.9938zm3.3442 0c2.1738-2.1966 3.7385-4.2086 3.4756-4.4741-0.50807-0.50555-6.7894 5.3158-7.8789 7.3-1.2285 2.2396 0.47269 1.1476 4.4033-2.8235zm3.6197-0.0531c1.9615-2.2294 3.4352-4.1834 3.2734-4.3452-0.40444-0.40191-7.8789 6.9563-7.8789 7.755 0 1.3599 1.1678 0.49291 4.6055-3.4124zm4.2137-0.92768c1.7517-1.8174 3.0333-3.4554 2.8487-3.6399-0.41707-0.41707-8.3238 7.3481-8.3238 8.1772 0 0.80887 1.6278-0.54346 5.475-4.5373zm-38.914 0.63193c1.9969-2.0222 3.324-3.6804 2.9473-3.6804s-2.2775 1.6556-4.2263 3.6778c-1.9464 2.0222-3.2759 3.6804-2.9473 3.6804 0.32607 0 2.2269-1.6557 4.2263-3.6804zm42.418-0.83667c1.782-1.9312 2.9751-3.506 2.649-3.5009-0.57632 0.0101-4.9341 4.378-6.9462 6.9639-1.9716 2.5302 0.88975 0.22497 4.2971-3.463zm9.3981 1.1855c1.8023-1.8301 3.1293-3.4781 2.9448-3.6627-0.18452-0.18199-1.9615 1.3144-3.9508 3.329-1.9868 2.0146-3.3113 3.6627-2.9448 3.6627 0.36905 0 2.1486-1.4989 3.9508-3.329zm-54.841-0.66985c1.8023-1.8301 3.1293-3.4781 2.9448-3.6601-0.182-0.18453-1.959 1.3144-3.9483 3.3265-1.9893 2.0146-3.3164 3.6652-2.9473 3.6652 0.37157 0 2.1486-1.4989 3.9508-3.3315zm48.712-0.3564c1.7694-2.0196 3.1142-3.6702 2.9878-3.6702-0.12638 0-1.868 1.6556-3.8674 3.6778-1.9969 2.0222-3.3391 3.6753-2.9827 3.6702 0.35388-5e-3 2.093-1.6607 3.8624-3.6778zm13.167-3.2684c0-0.86448-3.7688 2.7451-5.518 5.2829-0.95042 1.3801-0.30333 0.97064 2.0677-1.3144 1.8958-1.825 3.4503-3.6121 3.4503-3.9685zm0.0758 4.2794c1.4307-1.4711 2.3735-2.6667 2.098-2.6541-0.66732 0.0278-2.1536 1.2891-4.1303 3.5085-2.5227 2.8336-0.87207 2.1384 2.0348-0.85437zm2.3255 0.83921c-0.46257-0.46258-1.7315 0.48026-1.7315 1.2891 0 0.44235 0.38168 0.3918 1.0187-0.13649 0.56115-0.4651 0.88217-0.98329 0.71281-1.1526zm-67.331-1.8503c1.6228-1.6531 2.8083-3.147 2.6339-3.324-0.17441-0.17441-1.7947 1.1804-3.597 3.013-1.8023 1.8301-2.9878 3.3265-2.6339 3.324 0.35388-3e-3 1.9716-1.3599 3.597-3.013zm58.241-3.4453c0-0.27299-1.2032 0.67743-2.6743 2.1157-1.4711 1.4357-2.6769 2.8058-2.6769 3.0408 0 0.23761 1.2057-0.71534 2.6769-2.1157 1.4711-1.3978 2.6743-2.7678 2.6743-3.0408zm-59.912 1.3523c0.35136-0.91756 0.25277-0.96053-0.59907-0.25277-1.1602 0.96054-1.2816 1.3498-0.4196 1.3498 0.32861 0 0.78612-0.4929 1.0187-1.097zm214.95-1.6051c0.80382-0.7482 1.4636-1.7087 1.4636-2.1309 0-0.42212-0.90492 0.0986-2.007 1.1552-1.1046 1.0566-2.007 2.0171-2.007 2.1309 0 0.61676 1.2639 0.043 2.5505-1.1552zm-0.23508-3.377c1.3599-1.504 2.2901-2.9145 2.0727-3.1344-0.44235-0.43983-5.7253 4.4867-5.7253 5.336 0 1.183 1.3094 0.3918 3.6526-2.1991zm-2.1662-1.7593c4.2188-4.1733 5.2905-6.2586 1.5116-2.9423-3.0585 2.6844-6.6353 6.7692-5.93 6.7692 0.30332 0 2.2926-1.7214 4.4184-3.827zm-177.8 2.4974c5.9174-8e-3 6.5139-0.1188 5.7354-1.0566-2.649-3.19-7.5806-3.7764-12.019-1.4307-3.2911 1.7416-4.5221 3.6222-1.911 2.922 0.87711-0.23255 4.5651-0.42971 8.1974-0.43477zm-11.112-1.9388c1.8579-2.5126 6.5872-4.7673 9.9036-4.7218 4.0772 0.0556 8.4502 2.0222 9.987 4.4918 1.0035 1.6102 1.7593 2.1106 3.0105 1.9893 1.6127-0.15925 1.6809-0.35641 1.8705-5.5104 0.11122-2.9423 0.47521-5.6242 0.80887-5.9604 0.36146-0.35894 32.517-0.64963 78.385-0.70524l77.775-0.0935 0.19716-2.9878c0.17189-2.596-0.11122-3.3467-2.1612-5.743-2.7375-3.2001-3.7208-5.4573-3.7208-8.5513 0-4.1278 0.82909-6.3876 3.4276-9.3399 1.729-1.964 2.5909-3.5843 2.5909-4.8709v-1.9286l-131.72 0.0253c-107.58 0.0202-131.88-0.1365-132.59-0.84931-0.66226-0.66732-0.86954-4.5499-0.86954-16.387v-15.508l-3.3442 0.24014c-2.6794 0.19463-3.8472 0.69765-5.8871 2.5378-1.3978 1.2639-3.2987 2.5858-4.2213 2.9372-4.5625 1.734-11.574-0.2098-14.363-3.9812-1.2133-1.643-2.0171-2.0677-3.9104-2.0576-4.5954 0.0202-4.3249-2.1182-4.2289 33.449 0.04803 17.719 0.21486 32.345 0.37158 32.504 0.4196 0.41707 37.107 0.87964 76.898 0.96811 28.695 0.0632 34.786 0.23508 35.56 1.0111 0.71028 0.70776 0.84425 2.1486 0.55609 5.9553l-0.37915 5.0175h2.3103c1.7745 0 2.6465-0.44993 3.7385-1.9286zm189.71-5.2576c2.1662-2.3002 3.7309-4.1834 3.4781-4.1834-0.52577 0-4.1176 3.5186-7.2748 7.1282-3.3972 3.8876-0.57379 1.6936 3.7966-2.9473zm-0.32355-3.1774c1.9994-2.0121 3.4882-3.8042 3.3063-3.9862-0.17947-0.17947-2.1081 1.4711-4.282 3.6652-2.1738 2.1991-3.6627 3.9938-3.3063 3.9887 0.35641-5e-3 2.2851-1.6556 4.282-3.6652zm-1.0313-2.7198c1.4029-1.6784 2.4266-3.1774 2.275-3.329-0.15167-0.15166-1.7517 1.2234-3.554 3.0535-1.9211 1.9463-2.8639 3.329-2.2749 3.329 0.55104 0 2.1486-1.3751 3.554-3.0535zm99.633 0.30838c8.5361-0.12639 8.6271-0.14661 11.37-2.2345 3.4377-2.6187 4.512-5.5028 4.9467-13.314 0.36905-6.6226-0.89228-12.257-3.468-15.485l-1.4534-1.8225-17.355-0.27046c-9.5472-0.14914-22.775-0.24266-29.397-0.2098-28.495 0.14661-47.655-8e-3 -49.976-0.39685-1.3726-0.23003-3.4023-0.21992-4.5145 0.0253-1.7694 0.38674-2.0222 0.72799-2.0222 2.7299 0 1.7618 0.59148 2.8816 2.5732 4.8583 4.8734 4.8734 4.6131 13.369-0.54093 17.704-1.7947 1.509-2.0298 2.1258-2.0298 5.2652v3.554l41.632-0.13902c22.899-0.0758 45.504-0.19463 50.236-0.26541zm-98.91-4.5954c2.1738-2.1991 3.8219-4.1278 3.6576-4.2921-0.40444-0.40444-1.7087 0.71282-5.6191 4.8102-4.6181 4.838-2.8841 4.3805 1.964-0.51818zm0.45752-4.0823c2.2143-2.2345 3.8851-4.2086 3.7082-4.3831-0.33366-0.33366-8.4931 7.4264-8.4931 8.0761 0 0.89734 1.0111 0.1188 4.785-3.6905zm3.5742 3.3972c0.2275-0.36904 0.0935-0.66984-0.29574-0.66984-0.38927 0-0.70776 0.30332-0.70776 0.66984s0.13397 0.66732 0.29574 0.66732 0.48027-0.3008 0.70776-0.66732zm-3.3442-7.3557c2.184-2.2092 3.6702-4.014 3.3012-4.014-0.36652 0-2.4544 1.8048-4.6384 4.0115s-3.6702 4.014-3.3037 4.014c0.36904 0 2.4569-1.8073 4.6409-4.014zm-7.6918-4.6839c0-3.6778-0.26541-6.6884-0.59149-6.6884-0.3286 0-1.1122 1.097-1.7492 2.4392-1.2158 2.5606-1.0541 7.0018 0.34883 9.6256 1.4408 2.692 1.9918 1.2032 1.9918-5.3765zm15.758 5.3057c1.7264-1.9084 1.7694-8.3162 0.0733-10.907-0.67237-1.0288-1.3094-1.7694-1.413-1.6455-0.48785 0.5839-0.92009 13.935-0.44741 13.935 0.29322 0 1.0996-0.62182 1.7871-1.3827zm-9.8581-2.3609c3.3012-3.7309 3.329-4.196 0.0784-1.3144-3.0914 2.7451-3.8295 3.7208-2.8134 3.7208 0.33113 0 1.5621-1.0844 2.7325-2.4064zm1.3397-5.1009c2.2294-2.2926 3.9104-4.3047 3.741-4.4741-0.38168-0.38421-6.8248 5.8567-7.7095 7.4669-1.0819 1.9716-0.24519 1.3397 3.9685-2.9928zm0.0657-3.6323c2.2446-2.4494 3.9635-4.5676 3.8219-4.7091s-1.9261 1.4256-3.9635 3.4807c-4.7976 4.8355-5.4852 5.6798-4.6282 5.6798 0.37916 0 2.5277-2.0045 4.7698-4.4513zm3.7663-8.1114c-0.3008-0.29827-5.3588 4.6561-7.3683 7.2116-0.72293 0.92009 0.69765-0.26541 3.1596-2.6364 2.4595-2.371 4.3527-4.4286 4.2061-4.5752zm-3.7158 0.85942c2.371-2.3912 4.009-4.3477 3.6399-4.3477-0.36652 0-2.6061 1.9564-4.9746 4.3477-2.371 2.3912-4.009 4.3477-3.6399 4.3477 0.36652 0 2.6061-1.9564 4.9771-4.3477zm-0.0126-3.329c1.9893-2.0121 3.4655-3.8118 3.281-3.9938-0.18199-0.18452-2.1106 1.4661-4.287 3.6601-2.1738 2.1991-3.65 3.9963-3.281 3.9963s2.2977-1.6481 4.287-3.6627zm0.39938-4.3578 2.6263-3.0029-2.3836 1.9994c-2.6794 2.2497-5.4498 5.5559-3.8522 4.5979 0.54093-0.32355 2.1637-1.9413 3.6096-3.5944zm2.96-6.9007c0-0.32102-1.8048 1.1526-4.0115 3.2709-2.2092 2.1233-4.014 4.1707-4.014 4.555 0 0.38422 1.8048-1.0869 4.014-3.2709 2.2067-2.184 4.0115-4.2339 4.0115-4.555zm-2.4746-0.76337c1.3978-1.6734 2.4418-3.0408 2.3204-3.0408s-2.0171 1.8427-4.2137 4.0949c-2.1966 2.2497-3.2405 3.6197-2.3204 3.0408 0.92009-0.58138 2.8159-2.4216 4.2137-4.0949zm-4.5474 1.1122c1.456-1.1122 6.6024-6.8299 6.1424-6.8299-0.26542 0-2.1941 1.6557-4.2845 3.6804-2.0879 2.0222-3.5135 3.6728-3.1596 3.6652 0.3463-3e-3 0.93526-0.2376 1.3018-0.51818zm2.6642-6.7263c-0.43982-0.44235-3.6652 2.6212-3.6652 3.4832 0 0.37157 0.89734-0.18453 1.9969-1.2386s1.8503-2.0651 1.6683-2.2446zm-286.5-11.478c1.3245-0.36905 2.9524-1.2714 3.6146-2.0045 1.2007-1.3245 1.1577-1.3321-6.6909-1.3321-7.8764 0-7.8941 5e-3 -6.6782 1.3473 2.0651 2.28 5.8921 3.0611 9.757 1.9893zm-17.499-13.703c0.01011-0.36905-1.6304 1.0364-3.6475 3.1167-2.0146 2.0828-3.6652 4.1884-3.6652 4.6813 0.0025 1.0111 7.2874-6.7591 7.3127-7.798zm4.057 3.9432c4.4564-5.4295 4.0469-5.8795-0.85184-0.93525-2.3659 2.3912-4.1884 4.56-4.0444 4.8204 0.48785 0.88975 1.8907-0.22244 4.8962-3.8851zm3.2026 0.31597c3.4276-3.971 4.287-6.1297 1.4079-3.5312-2.8437 2.5656-6.7237 7.6312-5.8416 7.6312 0.4929 0 2.4873-1.8452 4.4336-4.1zm6.5645-4.4159c-0.52071-0.51818-7.7652 7.0902-7.7475 8.1367 0.0076 0.3918 1.8528-1.1779 4.1-3.4908 2.2497-2.3129 3.8902-4.4033 3.6475-4.6459zm0.24266 4.4665c1.9362-2.2244 3.3214-4.2466 3.0813-4.4867-0.4373-0.4373-7.6514 7.0801-7.7095 8.0331-0.07836 1.2992 1.4004 0.1643 4.6257-3.5464zm6.6833-4.2895c0.01517-0.35641-1.7643 1.1248-3.9534 3.2911-2.189 2.1663-3.7992 4.2339-3.5767 4.5954 0.41707 0.6749 7.4846-6.7237 7.5326-7.8865zm0.33619 3.9913c2.098-2.3912 3.5641-4.3477 3.2608-4.3477-0.49543-0.0051-8.2505 7.9851-8.2505 8.4931 0 0.98581 1.7947-0.50554 4.9897-4.1455zm7.0169-4.5322c-0.01769-0.44994-1.825 1.1324-4.014 3.5135-2.189 2.3836-3.9685 4.6409-3.9584 5.0175 0.01517 0.3741 1.82-1.2057 4.014-3.5135 2.1941-2.3103 3.9761-4.5676 3.9584-5.0175zm2.9701 0.22749c-0.41707-0.41707-7.5579 7.4416-7.5604 8.3162 0 0.36905 1.7694-1.279 3.9382-3.6652 2.1688-2.3836 3.7966-4.4766 3.6222-4.651zm0.53588 4.1075c1.7264-2.0778 2.9802-3.9382 2.7855-4.1303-0.3918-0.3918-7.5983 7.3127-7.5983 8.1241 0 1.1147 1.8275-0.4019 4.8128-3.9938zm6.203-4.0494c-0.50554-0.4929-7.6438 7.2293-7.6337 8.2606 0.0051 0.36652 1.825-1.2436 4.0444-3.5792 2.2193-2.3356 3.8346-4.4412 3.5894-4.6813zm3.0282 0.67743c0-0.3741-1.6557 1.0566-3.6778 3.1773-2.0222 2.1233-3.6728 4.1303-3.6652 4.464 0.02022 0.83414 7.343-6.792 7.343-7.6413zm1.504 2.232c0.95042-1.3801 0.30585-0.97064-2.0677 1.3144-1.8958 1.8225-3.4478 3.6096-3.4478 3.9685 0 0.86448 3.7688-2.7451 5.5155-5.2829zm-55.708-3.3467c-0.01769-0.36905-1.6708 1.1122-3.6778 3.286-2.007 2.1738-3.6349 4.2794-3.6172 4.6813 0.01517 0.39938 1.6708-1.0793 3.6778-3.286 2.0045-2.2067 3.6323-4.3148 3.6146-4.6813zm2.8589 5.2754c3.7334-4.0317 4.7344-5.925 1.552-2.9347-2.5581 2.4064-5.4245 6.0185-4.7749 6.0185 0.20222 0 1.6531-1.3877 3.2228-3.0838zm3.6652-0.32861c4.196-4.4665 4.5752-5.7834 0.55863-1.9362-2.9145 2.7906-4.8734 5.3486-4.0949 5.3486 0.18452 0 1.7745-1.5343 3.5388-3.4124zm7.4871-0.38674c1.8629-2.0904 3.2355-3.9534 3.0484-4.1379-0.40444-0.40444-6.1601 5.1009-7.0726 6.7667-1.322 2.4165 0.71282 1.0869 4.0241-2.6288zm46.351-2.553c0.96559-1.8402-3.1647 2.0348-4.9922 4.6813-1.188 1.7188-0.97823 1.6253 1.4534-0.66984 1.5596-1.4711 3.1521-3.2759 3.5388-4.0115zm-1.1425 5.015c0.66479-0.73557 1.0591-1.3397 0.87459-1.3397-0.182 0-0.87965 0.60412-1.5419 1.3397-0.66732 0.73557-1.0616 1.3397-0.87964 1.3397 0.18452 0 0.87964-0.60412 1.547-1.3397zm3.8068 0.16683c2.0373-2.371 2.0222-3.1167-0.0253-1.2133-1.1628 1.0819-2.1106 2.0601-2.1106 2.1738 0 0.62435 1.2639 0.0556 2.1359-0.96053zm-59.975-6.7313c-0.44741-0.44993-6.294 5.9224-6.3294 6.9007-0.01264 0.36652 1.4914-0.95042 3.3442-2.9271 1.8503-1.9767 3.195-3.7663 2.9852-3.9736zm-6.3648-0.38674c0-0.36652-1.0541 0.35388-2.3407 1.6-1.2891 1.2487-2.3407 2.5707-2.3407 2.9372 0 0.36905 1.0541-0.35135 2.3407-1.5975 1.2891-1.2487 2.3407-2.5707 2.3407-2.9397zm-4.0115 0.18452c0-0.36905-0.30333-0.48279-0.66985-0.2553-0.36652 0.2275-0.66984 0.71282-0.66984 1.0819s0.30333 0.4828 0.66984 0.2553c0.36905-0.2275 0.66985-0.71534 0.66985-1.0819zm26.314-4.7749c4.8709-5.0074 11.923-5.0605 17.684-0.12639 2.4721 2.1157 3.1394 2.3558 5.9755 2.1738l3.195-0.20222 0.17441-33.985c0.11375-22.411-0.05308-33.846-0.49291-33.573-3.0914 1.911-25.538 2.4266-31.116 0.71534-1.8377-0.56368-3.6424-1.0288-4.0115-1.0338-0.70776-0.0076-1.2891 66.535-0.59149 67.667 0.20475 0.33113 1.9286 0.54093 3.827 0.46257 2.8361-0.11628 3.7916-0.49038 5.3562-2.098zm15.818 1.8351c0-0.18958-0.97823-0.94031-2.1738-1.6683-2.553-1.5596-5.6823-1.7012-8.799-0.39685-4.4235 1.8478-3.5135 2.4089 3.9129 2.4089 3.8826 0 7.0599-0.15419 7.0599-0.34377zm5.9174-69.831c1.6-0.30838 3.3669-1.0187 3.9255-1.5798 2.7224-2.7224-6.0589-12.404-12.507-13.786-8.0533-1.729-17.247 2.4468-20.821 9.4537-1.782 3.4908-1.4408 4.5802 1.7492 5.566 3.104 0.96053 23.184 1.2082 27.653 0.3463z"/>
	<g font-size="20px">
		<text>
			<tspan x="330" y="215">Tap A</tspan>
			<tspan x="310" y="240">(turned on)</tspan>
		</text>
		<text>
			<tspan x="40" y="215">Tap C</tspan>
			<tspan x="40" y="240">(turned on)</tspan>
		</text>
		<text x="124" y="98">Tap B (turned off)</text>
	</g>
	<text font-size="16px">
		<tspan x="6" y="380">To standard</tspan>
		<tspan x="38" y="400">lamp</tspan>
	</text>
</svg>
