<?xml version="1.0" encoding="utf-8"?>
<svg xmlns="http://www.w3.org/2000/svg" viewBox="0 0 500 410">
	<title>A diagram of the same gas pipe as previously, with the only difference that now the handle of Tap A on the right, by the wall, is horizontal also and is labelled “turned off.”</title>
	<path d="m132.91 371.65c-1.1287-1.1312-0.17442-3.5581 2.701-6.8471 4.4252-5.0631 8.1228-9.6677 10.046-12.506 5.7508-8.4966 6.9518-10.241 7.2582-10.535 0.18936-0.18188 2.1179-2.98 4.2882-6.2192 5.1353-7.6694 10.306-17.449 15.354-29.053a1446.5 1446.5 0 0 1 5.0082-11.315c1.6545-3.6877 3.6378-8.7308 4.4078-11.208a127.35 127.35 0 0 1 2.5863-7.4725c1.3704-3.4385 3.9642-13.355 8.8828-33.951 4.8588-20.364 7.2009-34.781 5.8604-36.119-0.22425-0.22674-1.5 0.14451-2.8305 0.82225-1.3306 0.67773-4.8538 1.5897-7.8288 2.0257-6.4908 0.94684-14.462 0.0299-19.039-2.1927-2.5241-1.2259-3.0099-1.2882-3.5656-0.4485-0.39119 0.59053-0.53571 6.3836-0.36378 14.751 0.2093 10.348 0.0473 14.783-0.64784 17.8a366.9 366.9 0 0 0-1.6071 7.318c-1.4452 7.0689-4.5772 17.708-7.8313 26.636-1.1113 3.0473-2.0207 6.1669-2.0207 6.9343 0 0.76494-0.74252 2.4842-1.6495 3.8197-0.90697 1.333-1.647 2.7284-1.647 3.0996 0 1.1462-8.5364 18.521-12.01 24.446-9.8819 16.861-22.176 33.757-32.317 44.414-5.073 5.3297-5.6935 5.7807-6.9916 5.088-0.78239-0.4211-1.4227-1.206-1.4227-1.7492 0-0.54069 2.9003-4.1661 6.4434-8.0531 10.799-11.845 12.354-13.836 19.784-25.37 1.348-2.093 3.8347-5.7059 5.524-8.0306 3.1644-4.353 9.7823-16.903 9.7823-18.553 0-0.51329 0.24917-0.92939 0.55066-0.92939 0.30398 0 1.7641-2.4493 3.2442-5.4393 2.6486-5.3471 3.6553-7.7864 6.1843-15 0.70016-1.9933 1.5249-4.2184 1.8314-4.9435 2.8156-6.6627 4.5548-12.516 6.9916-23.511 0.45597-2.0556 1.0216-4.049 1.2583-4.4302 0.87706-1.4203 1.7566-11.863 1.6395-19.525l-0.13456-9.2291c-0.01-0.72508 0.2093-3.6926 0.48837-6.593 0.42358-4.4028 0.82973-5.6835 2.4568-7.764 3.3712-4.3056 2.706-4.799-6.0722-4.5224-5.8056 0.18189-8.1552-3e-3 -10.041-0.78986l-2.4642-1.0291v-5.2624c0-7.5921-8e-3 -7.5871 11.397-7.176 6.4136 0.22924 9.2242 0.10714 9.401-0.40864 0.13706-0.40364 0.0373-2.3023-0.21926-4.2184l-0.47341-3.4809-38.235-0.36628c-56.768-0.54817-63.665-0.54817-66.926 8e-3 -2.5241 0.42608-3.2516 0.28654-4.8014-0.93437l-1.8264-1.4352 0.22924-32.073c0.12458-17.641 0.3588-32.516 0.51827-33.059 0.24169-0.8347-0.84717-0.99915-6.9642-1.0515-3.9867-0.0349-8.0456-0.39119-9.0148-0.78986-1.6943-0.69766-1.7716-0.94932-1.9884-6.5282-0.12458-3.1943-0.1196-6.1644 0.01246-6.6029 0.41112-1.3904 2.8679-1.7591 10.497-1.5698 5.8529 0.14202 7.4202-5e-3 7.4326-0.70265 0.16943-10.061 0.01-19.592-0.34136-20.467-0.24917-0.61794-0.22425-1.485 0.04984-1.931 0.45597-0.73753 0.49833-5.5215 0.33388-38.81-0.0623-12.869-0.04239-13.044 1.7616-15.162 0.77242-0.90697 2.2973-2.7134 3.3912-4.0116 3.5407-4.2109 6.436-5.7184 12.59-6.5531 9.1793-1.2458 13.512-0.1196 18.989 4.9285 2.6237 2.4169 4.6993 6.7524 5.7184 11.953 0.54568 2.7757 0.51328 66.734-0.0349 69.009l-0.43853 1.8214 8.2549-0.40365c10.697-0.52326 10.859-0.39867 10.652 7.9783-0.19434 7.7989-0.23172 7.8263-10.365 7.3155-5.8828-0.299-7.8463-0.19435-8.083 0.42607-0.16944 0.451-0.06482 5.4194 0.23422 11.038 0.34884 6.5182 0.30896 11.001-0.10963 12.379-0.44352 1.4551-0.43605 2.3795 0.01994 2.8355 0.4485 0.4485 25.627 0.78238 75.435 0.99667 41.117 0.1769 88.703 0.4485 105.74 0.60547 37.592 0.34136 110.48 0.91196 146.13 1.1462l26.143 0.16695 0.95928-1.9759c0.52574-1.0888 1.2782-3.3139 1.6694-4.946 0.93438-3.9144 6.6802-13.398 10.433-17.217 4.4227-4.4999 9.3338-5.6561 13.953-3.279 3.6005 1.8538 7.2557 6.2616 9.6104 11.596 0.64036 1.4502 1.4327 3.2317 1.7566 3.9568 0.71511 1.5847 3.588 13.614 4.5598 19.074 0.88704 5.0132 0.897 20.743 0.01 25.811-1.5573 8.9202-4.6519 19.659-6.9368 24.077-5.9601 11.526-14.364 16.036-21.942 11.778-2.9377-1.652-7.4451-7.9484-9.6602-13.497-0.58056-1.4502-1.3031-3.2292-1.6096-3.9543-0.97674-2.3098-2.0207-6.6876-2.0207-8.4667v-1.7192l-17.965-0.0523c-9.882-0.0275-26.419-0.20929-36.752-0.40364-21.663-0.40366-45.072-0.46844-107.79-0.29901-36.767 0.0997-74.025-0.26162-84.385-0.81975l-1.9784-0.10714-0.19434 4.4526-0.19435 4.4501 9.4235-0.25913c11.546-0.31894 11.893-0.1495 11.297 5.5415-0.28903 2.7807-0.11711 4.3504 0.64535 5.8803 1.0016 2.0083 0.98421 2.108-0.40863 2.6312-1.6246 0.60798-16.5 0.39618-19.572-0.27906-1.9186-0.42359-1.9834-0.3588-1.9834 1.9435 0 1.4502 0.36628 2.5216 0.93687 2.7408 1.5149 0.58056 1.9061 2.2126 2.0432 8.4966 0.1196 5.6287-0.69767 12.202-2.3422 18.792-0.40614 1.6296-1.0465 4.7466-1.4252 6.9219a93.794 93.794 0 0 1-1.9734 8.377c-0.70764 2.4319-1.5448 6.1395-1.8613 8.2399-0.61544 4.1013-1.8887 8.813-3.5307 13.049-0.56063 1.4501-1.034 3.3887-1.049 4.3106-0.015 0.92192-0.60298 2.7956-1.3006 4.1686-0.70016 1.3754-1.7691 4.181-2.3746 6.2391-0.60547 2.0581-1.3505 4.3355-1.6545 5.0581-0.30398 0.72507-2.0905 5.0282-3.9667 9.5605-1.8762 4.5324-4.7118 10.876-6.3039 14.098-1.5872 3.2217-2.8878 6.1295-2.8878 6.4634 0 0.33139-0.74252 1.6943-1.647 3.0299-0.90696 1.333-1.6495 2.8156-1.6495 3.294 0 0.47591-1.186 2.6536-2.6362 4.8363-1.4502 2.1852-2.6387 4.0714-2.6387 4.191 0 0.12458-1.5573 2.7857-3.4609 5.9177-1.9036 3.132-4.0539 6.7998-4.779 8.1527-1.4153 2.6362-8.7657 12.67-12.331 16.829-1.196 1.3953-2.4244 3.0274-2.7334 3.6254-0.81478 1.5797-6.4235 6.6951-7.3405 6.6951-0.42856 0-0.97673-0.19933-1.2184-0.43854zm58.813-166.4c4.3156-0.9269 6.6727-3.1146 6.6727-6.1893 0-2.0855-0.18688-2.3372-1.7317-2.3372-1.049 0-2.7234 0.8945-4.2383 2.2624-5.4244 4.8986-12.174 4.8214-17.898-0.20183-3.8795-3.4086-6.7524-2.4119-6.0224 2.0855 0.35382 2.1827 0.7176 2.5415 3.7699 3.7151 3.887 1.495 13.966 1.8388 19.447 0.66528zm279.92-4.9385c2.9576-1.2359 8.1502-6.3288 9.7075-9.5232 2.6312-5.387 5.8405-15.563 6.6029-20.925 0.4485-3.1744 0.77989-11.113 0.73006-17.641-0.0748-9.8994-0.30897-12.521-1.4003-15.822-0.72008-2.1752-1.8189-6.0298-2.4418-8.5639-1.3953-5.681-4.0764-11.058-7.1959-14.427-2.2674-2.4493-2.5066-2.5415-5.7034-2.2375-2.7483 0.26411-3.7873 0.76245-5.8903 2.8156-2.7832 2.7159-6.593 9.2939-6.593 11.382 0 0.72258-0.44352 1.6794-0.98919 2.1304-0.54319 0.45348-0.9892 1.3056-0.99169 1.8937-3e-3 0.59052-0.5955 1.9634-1.3156 3.0523-0.72009 1.0864-1.3106 2.1553-1.3131 2.3721-3e-3 0.21678 2.9526 0.57308 6.5656 0.79734 3.8048 0.22923 7.3753 0.81726 8.4916 1.3928 2.5963 1.343 5.2524 4.6021 7.1959 8.8305 1.4776 3.2092 1.5922 4.1511 1.3704 11.208-0.22425 7.2358-0.36379 7.9235-2.3297 11.33-1.5498 2.686-3.0299 4.1935-5.7234 5.8255-3.4659 2.098-3.887 2.1927-9.2466 2.0058-3.0897-0.10713-5.8056-5e-3 -6.0323 0.22426-1.0963 1.0914 4.9086 16.56 8.073 20.803 0.88702 1.1885 2.5564 2.5739 3.7076 3.0772 1.1536 0.50581 2.1354 0.94186 2.1802 0.97175 0.0499 0.0299 1.191-0.40863 2.5415-0.97175zm-283.1-1.9584c1.0689-0.55314 1.9435-1.1462 1.9435-1.3181 0-0.17193-2.9651-0.31146-6.593-0.31146-3.6254 0-6.5905 0.24916-6.5905 0.55812 0 1.9684 8.0232 2.7359 11.237 1.0714zm-6.6802-11.188c0-0.36378-1.3131 0.82225-2.9252 2.6362-1.6096 1.8114-2.9327 3.583-2.9402 3.9368-8e-3 0.35133 1.3081-0.83471 2.9227-2.6362 1.6146-1.804 2.9402-3.5755 2.9402-3.9368zm5.9202 0.82225c0.48836-0.63538 0.61543-1.1536 0.28404-1.1536-0.61793 0-5.4916 6.0622-5.4916 6.8322 0 0.39865 3.289-3.1894 5.2076-5.6785zm10.59-1.4452c-0.0349-0.85714-5.1154 4.6843-5.995 6.5381-0.34883 0.73255 0.86462-0.27907 2.6935-2.2525 1.8289-1.9709 3.3139-3.8995 3.299-4.2857zm0.897 3.5506c1.3878-1.794 2.23-3.2591 1.8762-3.2591-0.64534 0-6.0448 6.1021-6.0448 6.8272 0 0.99666 1.8887-0.61793 4.1686-3.5681zm8.3296-2.9103c-0.015-0.37374-1.353 0.79734-2.9676 2.5988-1.6146 1.804-2.9252 3.583-2.9078 3.9568 0.0175 0.37375 1.3505-0.79733 2.9651-2.6013 1.6171-1.804 2.9252-3.583 2.9103-3.9543zm2.8829 0.31894c-0.46595-0.45099-5.4991 5.2325-5.4667 6.1744 0.015 0.40614 1.3281-0.74003 2.9227-2.5465 1.5922-1.809 2.7384-3.4385 2.544-3.6279zm3.6777-0.33887c0-0.36129-1.3206 0.81727-2.9352 2.6187-1.6171 1.804-2.9377 3.5756-2.9377 3.9368 0 0.36378 1.3206-0.81478 2.9377-2.6163 1.6146-1.804 2.9352-3.5755 2.9352-3.9368zm-48.438-0.26412c-0.42608-0.42358-5.5066 5.2973-5.5016 6.1993 0 0.36129 1.3131-0.8073 2.9202-2.6013 1.6046-1.7915 2.7658-3.4111 2.5789-3.598zm2.98 0.26412c-0.015-0.36129-1.1985 0.67524-2.6337 2.3073-1.4327 1.632-2.5963 3.2641-2.5814 3.6279 0.015 0.36129 1.201-0.67774 2.6337-2.3098 1.4352-1.6295 2.5963-3.2641 2.5814-3.6254zm6.593 0c-0.0149-0.36129-1.1985 0.64036-2.6337 2.2276-1.4377 1.5872-2.5988 3.2192-2.5839 3.6254 0.015 0.40864 1.2035-0.59551 2.6362-2.2276 1.4352-1.6295 2.5963-3.2641 2.5814-3.6254zm0.52325 3.7923c1.0565-1.3604 2.1777-2.9177 2.4892-3.4634 0.49336-0.85714 0.41611-0.8671-0.57308-0.0623-1.8388 1.4925-5.2175 5.9974-4.4974 5.9974 0.36129 0 1.5224-1.1138 2.5814-2.4717zm6.7574-0.82473c1.5199-1.8139 2.6113-3.2965 2.4319-3.2965-0.18189 0-1.5722 1.4825-3.0897 3.2965-1.5199 1.8139-2.6113 3.2965-2.4319 3.2965 0.18188 0 1.5722-1.4825 3.0897-3.2965zm8.8703-3.2167c-0.38372-0.38372-3.9568 3.6054-4.9509 5.524-0.37375 0.72507 0.65781-0.1495 2.2973-1.941 1.637-1.7915 2.833-3.4036 2.6536-3.583zm3.6428-0.3912c-8e-3 -0.37375-1.3306 0.80481-2.9402 2.6188-1.6121 1.8139-2.9277 3.593-2.9252 3.9568 3e-3 0.36129 1.3256-0.81726 2.9402-2.6212 1.6171-1.8015 2.9327-3.583 2.9252-3.9543zm7.2657 3.7624c3.2392-4.338 3.2466-4.8637 0.0299-1.804-3.2442 3.0897-4.4551 4.9584-3.1844 4.921 0.46593-0.015 1.8837-1.4178 3.1544-3.1171zm14.713-2.7907c-0.45847-0.47341-4.8264 4.4402-4.8239 5.4294 0 0.45846 1.1586-0.50333 2.5714-2.1354 1.4128-1.6295 2.4269-3.1146 2.2525-3.294zm1.7691 2.4418c0-0.88703-1.9136 0.8073-2.7658 2.4468-0.63537 1.2259-0.52325 1.201 1.0266-0.22426 0.95431-0.87955 1.7367-1.8812 1.7367-2.225zm-63.301-2.7159c5e-3 -0.33388-1.0141 0.55564-2.2674 1.9759-1.2558 1.4202-2.2824 2.8779-2.2849 3.2392 0 0.36379 1.0216-0.52325 2.2699-1.9759 1.2508-1.4502 2.2774-2.9078 2.2824-3.2392zm1.8538 2.3795c1.2558-1.5199 1.9834-2.7658 1.6196-2.7658-0.36877 0-1.794 1.3779-3.1769 3.0648-1.3804 1.6819-2.108 2.9252-1.6196 2.7633 0.49335-0.16445 1.9211-1.5424 3.1769-3.0648zm5.3895-3.0149c-0.01-0.40614-1.1885 0.59551-2.6163 2.2276-1.4302 1.632-2.5963 3.2641-2.5913 3.6254 5e-3 0.36129 1.181-0.64036 2.6162-2.2276 1.4352-1.5872 2.6013-3.2192 2.5913-3.6254zm7.5647 3.2143c1.338-1.6296 2.1503-2.9651 1.8065-2.9651-0.34136 0-1.7168 1.3355-3.0548 2.9651-1.3355 1.632-2.1503 2.9676-1.8065 2.9676s1.7192-1.3355 3.0548-2.9651zm-18.717-1.353c0.86959-0.92691 1.1362-1.5149 0.59302-1.3056-0.85713 0.3289-2.99 2.99-2.397 2.99 0.12208 0 0.93188-0.75747 1.804-1.6844zm22.393-6.9044c1.4825-2.083 6.9642-5.2574 9.0771-5.2574 3.0498 0 7.4401 2.1802 9.416 4.6744 2.0805 2.6287 4.6245 3.426 5.6486 1.7691 0.27408-0.446 0.51577-2.99 0.53321-5.6561 0.0274-4.0539 0.24917-5.0033 1.3455-5.8056 1.4153-1.0365 31.171-1.0116 111.42 0.0947 19.943 0.27408 61.92 0.53819 93.285 0.58803 51.894 0.0848 57.408-0.01 61.3-1.0365 6.2267-1.6445 7.6195-3.9418 8.372-13.816 0.69019-9.0298-2.0606-15.316-7.48-17.105-3.0348-0.99917-27.164-1.196-195.36-1.5648-73.424-0.16445-143.44-0.46844-155.58-0.68023-21.284-0.37125-22.126-0.43354-23.227-1.7491-0.85963-1.0266-0.97922-1.6744-0.48089-2.6088 0.38621-0.72258 0.49086-3.1096 0.24916-5.7059-0.22425-2.4568-0.34385-5.8006-0.25913-7.4326 0.08472-1.632 0.18937-5.6362 0.23422-8.9002l0.08222-5.9326-2.9676-0.0748c-2.402-0.0598-3.3438 0.27907-4.9435 1.779-3.1171 2.9202-7.8438 4.7416-10.946 4.2184-3.4559-0.58554-6.4584-2.1179-8.6037-4.3953-1.1287-1.201-2.4094-1.8538-3.6254-1.8463-3.4634 0.0174-3.7799 0.64285-3.2392 6.3537 0.2691 2.8455 0.48338 5.544 0.4784 5.9974-0.06728 6.2491 0 36.864 0.09717 43.345l0.12459 8.5713 10.221 0.0897c5.6212 0.0499 29.205 0.29402 52.41 0.54816 23.207 0.24917 42.882 0.43356 43.726 0.40615 3.4535-0.11212 4.0016 0.82474 3.598 6.1494-0.20183 2.691-0.18937 5.3646 0.0299 5.9376 0.68271 1.7741 3.5058 1.2433 5.0705-0.95431zm179.06-16.744-3.8696-2.3546-12.448-0.0499c-9.9642-0.0399-12.64-0.23919-13.408-1.0066-1.2707-1.2708-1.3006-10.988-0.0423-13.42l0.89201-1.7267 13.32 0.22923c12.613 0.21927 13.395 0.15947 14.733-1.0963 2.0158-1.8937 5.8853-3.3712 8.7906-3.3538 2.7857 0.015 7.2906 1.8388 8.671 3.5083 0.78986 0.95181 2.6486 1.0938 14.502 1.1013 7.4825 5e-3 14.008 0.2691 14.506 0.58554 1.1561 0.73256 1.0764 13.702-0.0922 15.109-0.62044 0.7475-3.3064 0.87956-14.302 0.69517l-13.54-0.22425-2.8804 1.9385c-2.2276 1.5025-3.7873 1.9933-6.9219 2.1802-3.6852 0.21927-4.3853 0.0299-7.911-2.1154zm11.511-1.0714c2.2749-1.2159 0.68023-1.8986-3.8745-1.652-6.0224 0.32392-5.9077 0.28654-4.4676 1.3779 1.4825 1.1213 6.4534 1.2857 8.3421 0.27408zm-5.8679-5.0755c1.4776-1.7192 2.0008-2.8006 1.353-2.8006-0.31395 0-1.2309 0.88952-2.0357 1.9759-1.5523 2.1005-0.99169 2.7757 0.68272 0.82474zm9.6353-3.5805c2.235-2.6013 3.8945-4.9011 3.6877-5.1079-0.20682-0.20681-1.1287 0.51329-2.0482 1.6021a176.48 176.48 0 0 1-4.2308 4.7392c-1.4053 1.5199-2.5564 2.9302-2.5564 3.132 0 1.1462 1.5324-0.14949 5.1478-4.3654zm9.9816-0.86959c8e-3 -0.3613-1.0091 0.52823-2.2599 1.9784-1.2483 1.4502-2.2774 2.9327-2.2874 3.2965-8e-3 0.3613 1.0091-0.52823 2.2574-1.9784 1.2508-1.4502 2.2799-2.9327 2.2898-3.2965zm-42.762-3.2965c0.38871-0.7226-1.0814 0.61045-3.2716 2.9651-2.1877 2.3596-3.9867 4.5847-3.9991 4.946-0.0249 0.79983 6.279-6.0547 7.2707-7.911zm0.31147 3.4335 3.0373-4.0913-3.6628 3.9543c-2.0182 2.1752-3.6727 4.196-3.6827 4.49-0.0299 1.039 1.3106-0.31395 4.3081-4.3529zm21.742 1.7143c3.4958-4.1412 4.5946-5.7059 3.7923-5.3994-0.94684 0.3613-7.5996 8.4916-6.9468 8.4916 0.299 0 1.7192-1.3904 3.1544-3.0922zm11.482-6.3762c-0.0349-0.87457-6.9841 6.5381-7.9484 8.4816-0.36129 0.72258 1.2857-0.7176 3.6628-3.2068 2.3721-2.4917 4.3031-4.8637 4.2857-5.2748zm2.0731 6.0074c4.7491-5.8205 5.0332-6.2391 2.995-4.4501-2.7408 2.4119-7.2458 7.911-6.4783 7.911 0.36129 0 1.9286-1.5573 3.4834-3.4609zm2.3397 0.98919c2.848-3.583 3.3488-4.6893 1.2633-2.8006-2.2898 2.0731-4.6096 5.2724-3.8222 5.2724 0.3239 0 1.4776-1.1113 2.5589-2.4717zm21.413 1.3206c0.81975-1.0465 0.79733-1.0714-0.24917-0.24917-0.63537 0.49834-1.1536 1.0166-1.1536 1.1536 0 0.54069 0.54069 0.19185 1.4028-0.90697zm-58.013-0.98919c0.7151-1.3455 0.68769-1.4003-0.30648-0.58055-0.60299 0.49832-1.0963 1.1661-1.0963 1.485 0 1.0066 0.58554 0.6279 1.4028-0.90447zm9.4185 0.39867c0.34884-0.90448 0.24917-0.94434-0.58803-0.24917-1.1462 0.95181-1.2633 1.333-0.41612 1.333 0.32393 0 0.77492-0.48836 1.0042-1.0814zm7.8214-5.1802 2.0407-2.6362-2.1628 1.9784a44.21 44.21 0 0 0-4.2034 4.6146l-2.0407 2.6362 2.1628-1.9784a44.21 44.21 0 0 0 4.2034-4.6146zm-0.55814 3.6952c-0.41361-0.41611-1.5897 1.2583-1.5722 2.24 5e-3 0.36129 0.44351 0.0872 0.97175-0.61295 0.52823-0.69766 0.79734-1.4302 0.60049-1.627zm32.292 1.4875c0.34885-0.90697 0.24918-0.94683-0.58802-0.24917-1.1462 0.94683-1.2633 1.3306-0.41611 1.3306 0.32391 0 0.77491-0.48836 1.0041-1.0814zm-45.019-1.3904c0.82225-1.0465 0.79734-1.0714-0.24916-0.24917-1.0963 0.85962-1.4452 1.4028-0.90449 1.4028 0.13705 0 0.65531-0.52076 1.1536-1.1536zm-12.334-0.58804c0.34385-0.90447 0.24916-0.94683-0.59052-0.24916-1.1462 0.94933-1.2633 1.3306-0.41611 1.3306 0.32391 0 0.77491-0.48588 1.0041-1.0814zm67.499-2.5614c-0.21428-0.21428-1.059 0.59302-1.8762 1.794l-1.49 2.1777 1.8762-1.794c1.0315-0.98421 1.7018-1.9659 1.49-2.1777zm-55.156-0.49833 1.4726-2.1204-1.5025 1.3106c-0.82722 0.72258-1.804 1.8688-2.1678 2.5515-1.0365 1.9335 0.4784 0.73504 2.1977-1.7392zm24.498-2.4518c-0.40365-0.40365-4.1561 3.9892-4.1561 4.8662 0 0.34634 1.0091-0.53322 2.2425-1.9535 1.2334-1.4202 2.093-2.7309 1.9136-2.9128zm-14.063 1.8139 1.5448-2.1428-1.7516 1.5972c-0.96427 0.87956-1.7516 1.8438-1.7516 2.1428 0 0.91693 0.34882 0.63039 1.9584-1.5972zm-6.3787-0.18687c1.5249-2.093 1.1212-2.083-0.85464 0.0199-0.85216 0.90696-1.2732 1.6395-0.93936 1.6296 0.33637-0.0124 1.1437-0.75498 1.794-1.6495zm13.186 0c1.5224-2.093 1.1213-2.083-0.85464 0.0199-0.85215 0.90696-1.2757 1.6395-0.93935 1.6296 0.33389-0.0124 1.1412-0.75498 1.794-1.6495zm25.844 0.35132c0.6578-0.72508 1.0465-1.3206 0.86461-1.3206s-0.8671 0.5955-1.5224 1.3206c-0.6578 0.72508-1.0465 1.3206-0.8646 1.3206 0.18188 0 0.86709-0.59551 1.5224-1.3206zm6.593 0c0.6578-0.72508 1.0465-1.3206 0.86461-1.3206s-0.8671 0.5955-1.5224 1.3206c-0.65779 0.72508-1.0465 1.3206-0.8646 1.3206s0.8671-0.59551 1.5224-1.3206zm-62.217-0.49335c0.82225-1.0465 0.79733-1.0714-0.24668-0.24916-1.0963 0.85962-1.4452 1.4028-0.90448 1.4028 0.13705 0 0.65532-0.52075 1.1536-1.1536zm3.5432-0.16693c0.6578-0.72259 1.0465-1.3181 0.86461-1.3181-0.1819 0-0.8671 0.59302-1.5224 1.3206-0.6578 0.72258-1.0465 1.3181-0.86461 1.3181 0.1819 0 0.8671-0.59551 1.5224-1.3206zm30.747-4.6146c3.6628 0 3.8172-1.0216 0.25914-1.6868-2.706-0.5083-7.5822 0.87707-6.1968 1.7591 0.49584 0.31395 1.2957 0.42857 1.779 0.24917 0.48339-0.17442 2.3546-0.32143 4.1611-0.32143zm-172.81 36.226c0-0.90946-4.1013-2.6038-6.3089-2.6038-1.9933 0-6.2167 1.8438-6.2167 2.7134 0 0.32143 2.8156 0.58306 6.2616 0.58306 3.9368 0 6.264-0.25664 6.264-0.69269zm-109.9-76.25 2.1104-1.1262-4.6146-0.54318c-7.6893-0.90448-10.714-0.0374-6.8471 1.9634 2.255 1.1686 6.8919 1.0216 9.3512-0.29401zm-3.5132-11.893c0.01246-0.45099-0.2392-0.82225-0.55813-0.82225-0.84717 0-6.0174 6.8795-5.9925 7.9733 0.02492 1.1163 6.5207-5.9725 6.5506-7.1511zm34.948 4.2857c0.0274-0.90199-0.74749-0.51328-1.9609 0.9867-0.65781 0.81477-1.034 1.7442-0.83472 2.0681 0.35382 0.57059 2.7658-2.0656 2.7956-3.0548zm-48.697-3.3712c1.2259-2.108-0.4485-0.91445-2.9651 2.1179-1.3106 1.5722-2.377 3.2043-2.3721 3.6229 0.01 0.79484 4.0888-3.5955 5.3372-5.7408zm3.2566 0.0747c0.36877-0.63288 0.40614-1.1536 0.07973-1.1536-0.75995 0-5.3895 5.9152-5.377 6.867 0.01 0.74003 4.1063-3.6777 5.2973-5.7134zm1.1711 2.7159c1.5124-1.8638 2.7408-3.7176 2.7259-4.1212-0.02986-0.79734-4.9634 4.4227-5.9875 6.3338-1.2458 2.3272 0.56561 1.0963 3.2591-2.2151zm3.7275-0.33139c1.6619-2.0432 2.8355-3.897 2.6013-4.1187-0.4485-0.43356-6.872 6.3911-6.872 7.3006 0 1.343 1.4875 0.23422 4.2707-3.1818zm6.2541 0.0374c1.5299-2.0207 2.6486-3.8048 2.4892-3.9642-0.40365-0.40614-6.4235 6.1121-6.4235 6.9518 0 1.5 1.2882 0.52325 3.9368-2.9875zm1.7766 1.8638c0.62042-0.99666 1.7143-2.4792 2.4344-3.294 0.72258-0.81478 1.1462-1.6445 0.94932-1.8413-0.41113-0.41113-5.7981 5.5166-5.7981 6.3812 0 1.1835 1.333 0.49583 2.4169-1.2458zm3.9568-0.98919c4.0514-5.7358 3.4983-5.9825-1.0963-0.49086-1.6744 1.9958-2.392 3.294-1.8214 3.294 0.51577 0 1.8289-1.2608 2.9153-2.8031zm5.4692-3.3812c-0.01497-0.40614-1.2035 0.598-2.6362 2.2276-1.4352 1.632-2.5963 3.2641-2.5814 3.6254 0.01497 0.36379 1.1985-0.63786 2.6337-2.2275 1.4352-1.5872 2.5988-3.2192 2.5839-3.6254zm3.3787-0.0798c0.36627-0.72259-0.68521 0.15698-2.3322 1.9609-1.6495 1.8015-2.985 3.583-2.9726 3.9543 0.02987 0.80232 4.348-4.0116 5.3072-5.9152zm2.4717 0.84218c0.8671-1.2159 0.21678-0.72508-1.4825 1.1188-1.6619 1.8015-3.0149 3.583-3.0025 3.9543 0.02492 0.70265 1.8189-1.3306 4.485-5.073zm0.19435 3.9368c0.7176-1.3455 0.6877-1.3978-0.30648-0.57806-0.60298 0.49833-1.0963 1.1661-1.0963 1.485 0 1.0066 0.58554 0.6279 1.4028-0.90697zm13.729-5.4194c-0.0175-0.37375-1.3505 0.79734-2.9651 2.6013-1.6146 1.8015-2.9252 3.583-2.9078 3.9543 0.0175 0.37375 1.3505-0.79733 2.9651-2.6013 1.6171-1.8015 2.9252-3.583 2.9078-3.9543zm2.8854 0.32143c-0.46595-0.45349-5.4991 5.23-5.4667 6.1718 0.015 0.40614 1.3281-0.74002 2.9227-2.5465 1.5922-1.809 2.7383-3.4385 2.544-3.6254zm-51.029-0.33887c-0.0026-0.36379-1.1811 0.67274-2.6162 2.3073-1.4327 1.6296-2.5963 3.2641-2.5863 3.6254 0.01 0.36129 1.186-0.67524 2.6162-2.3073 1.4277-1.632 2.5913-3.2641 2.5888-3.6254zm44.499 0.3887c-0.4485-0.45099-4.2034 3.9269-4.191 4.8837 5e-3 0.36378 1.0365-0.50331 2.2923-1.9211 1.2533-1.4202 2.1079-2.7533 1.8986-2.9651zm-49.093 0.92939c0-0.36379-0.58056 0.0822-1.2907 0.98919-0.70764 0.90448-1.2882 1.9435-1.2882 2.3073 0 0.36129 0.58056-0.0822 1.2882-0.98918 0.71012-0.90697 1.2907-1.9435 1.2907-2.3073zm46.176-1.2957c0-0.37374-0.88953 0.35631-1.9759 1.6246-1.0864 1.2708-1.9634 2.6038-1.951 2.9651 0.0349 0.86211 3.9294-3.6927 3.9269-4.5872zm-48.231-0.0199c-0.20182-0.20432-1.196 0.74999-2.2026 2.1204l-1.8339 2.4917 2.2026-2.1229c1.211-1.1661 2.0357-2.2873 1.8339-2.4917zm-3.5182 0.98421c0.22425-0.3613 0.09219-0.6578-0.29153-0.6578-0.38371 0-0.69766 0.2965-0.69766 0.6578 0 0.36378 0.12957 0.66029 0.28903 0.66029 0.16196 0 0.47342-0.299 0.69767-0.66029zm29.995-5.9327c-1.9759-1.5448-5.7258-1.6993-8.9202-0.36378-1.2583 0.52575-2.2873 1.1213-2.2873 1.3206s2.8928 0.35381 6.4285 0.34883l6.4285-0.0174zm10.973 0.6578h2.2973l-0.15947-33.343-0.15698-33.343-2.3571 0.44102c-1.2957 0.2417-2.7732 0.78488-3.2815 1.206-1.2707 1.0465-23.417 0.9294-26.03-0.14202-1.0465-0.42857-2.0357-0.64784-2.1952-0.48588-0.16196 0.15947-0.31395 14.925-0.33887 32.815l-0.04483 32.524 3.152 0.20431c2.5714 0.16694 3.4734-0.0847 4.8787-1.3629 4.0888-3.7126 6.3338-4.4277 11.287-3.5905 2.1329 0.36129 3.7724 1.2458 5.8405 3.1619 1.7093 1.5797 3.2691 2.5091 3.8446 2.2898 0.53322-0.20431 2.0033-0.37374 3.2641-0.37374zm-2.9227-70.041c2.098-0.81477 3.8172-1.7591 3.8172-2.1005 0-1.784-2.9975-6.3787-5.4493-8.3471-2.6162-2.1055-3.152-2.2599-8.4891-2.4742-6.2541-0.24916-9.4883 0.72258-14.113 4.2533-2.1254 1.6196-4.9111 5.828-4.9111 7.4127 0 1.353 7.7242 2.6063 16.455 2.6711 7.7217 0.05485 9.3687-0.12707 12.69-1.4153zm21.912 350.17c-0.24169-0.39369 0.6304-2.2674 1.9385-4.1686 1.3106-1.9011 2.382-3.7475 2.382-4.1063 0-0.35631 0.41113-1.2134 0.91694-1.9036 0.78487-1.0739 1.0714-1.1262 1.9933-0.36129 0.59053 0.49086 1.1586 0.77491 1.2583 0.63288 0.0997-0.14202 1.8264-2.1877 3.8372-4.5423l5.1951-6.0996c1.8563-2.1852 3.9368-2.4169 3.9368-0.43604 0 1.3704-0.92192 2.5315-8.073 10.178-4.0216 4.2932-4.3804 4.926-2.8031 4.926 0.54318 0 0.9892 0.56311 0.9892 1.2483 0 1.2857-1.211 2.0481-3.2516 2.0481-0.64284 0-2.5614 0.74252-4.2657 1.6495-3.5681 1.8937-3.4734 1.8737-4.054 0.93438z"/>
	<g font-size="20px">
		<text>
			<tspan x="330" y="215">Tap A</tspan>
			<tspan x="310" y="240">(turned off)</tspan>
		</text>
		<text>
			<tspan x="40" y="215">Tap C</tspan>
			<tspan x="40" y="240">(turned on)</tspan>
		</text>
		<text x="124" y="98">Tap B (turned off)</text>
	</g>
	<text font-size="16px">
		<tspan x="6" y="380">To standard</tspan>
		<tspan x="38" y="400">lamp</tspan>
	</text>
</svg>
